<svg xmlns="http://www.w3.org/2000/svg" viewBox="0 0 418.5 147.1" enable-background="new 0 0 418.5 147.1"><path d="M182.7 60.3V47.5h34.8v43.6c0 8-2.1 13.9-6.2 17.9-4.1 4-9.4 5.9-15.8 5.9-8 0-15-3.1-21-9.3l7.7-10.7c4 4.3 8.2 6.5 12.6 6.5 2.1 0 3.9-.8 5.4-2.4 1.5-1.6 2.2-4.1 2.2-7.3V60.3h-19.7zm103.6-12.8v13.3H253v13.8h30v12.7h-30v13.9h34.3v13.2h-49.2V47.5h48.2zm47.4 12.9v53.9h-14.9V60.4h-18.9V47.5h52.8v12.9h-19zm49.7.4c-1.4 1.2-2.2 2.7-2.2 4.7 0 1.9.9 3.5 2.6 4.6 1.8 1.1 5.8 2.5 12.1 4.1 6.3 1.6 11.3 3.9 14.8 7s5.3 7.7 5.3 13.7c0 6-2.2 10.9-6.7 14.6s-10.4 5.6-17.7 5.6c-10.6 0-20.1-3.9-28.6-11.8l8.9-10.9c7.2 6.3 13.9 9.5 20 9.5 2.7 0 4.9-.6 6.5-1.8 1.6-1.2 2.3-2.8 2.3-4.8s-.8-3.6-2.5-4.8c-1.7-1.2-4.9-2.4-9.8-3.6-7.8-1.8-13.5-4.3-17.1-7.2-3.6-3-5.4-7.6-5.4-14 0-6.3 2.3-11.2 6.8-14.7 4.6-3.4 10.2-5.2 17.1-5.2 4.5 0 8.9.8 13.4 2.3 4.5 1.5 8.4 3.7 11.7 6.5l-7.6 10.9c-5.8-4.4-11.8-6.6-18-6.6-2.5.2-4.4.8-5.9 1.9zM140.4 139h1.5c0 .4.1.7.2.9s.2.5.4.6.4.3.7.4.5.1.8.1c.3 0 .6 0 .8-.1s.5-.2.7-.4.3-.4.4-.7.2-.6.2-1v-8.1h1.5v8.1c0 .6-.1 1.1-.3 1.5-.2.4-.4.8-.7 1.1-.3.3-.7.5-1.1.7-.4.2-.9.2-1.4.2-.5 0-1-.1-1.4-.2s-.8-.3-1.1-.6-.6-.6-.7-1-.5-1-.5-1.5zm9.1-1v-.2c0-.6.1-1.2.3-1.7s.4-1 .8-1.4.7-.7 1.2-.9c.5-.2 1-.3 1.6-.3.6 0 1.1.1 1.6.3.5.2.9.5 1.2.9s.6.8.8 1.4c.2.5.3 1.1.3 1.7v.2c0 .6-.1 1.2-.3 1.7-.2.5-.4 1-.8 1.4s-.7.7-1.2.9c-.5.2-1 .3-1.6.3s-1.1-.1-1.6-.3c-.5-.2-.9-.5-1.2-.9s-.6-.8-.8-1.4-.3-1.1-.3-1.7zm1.4 0c0 .4 0 .8.1 1.2.1.4.2.7.5 1s.5.5.8.7.7.3 1.1.3c.4 0 .7-.1 1-.3s.6-.4.8-.7.3-.6.5-1c.1-.4.2-.8.2-1.2v-.2c0-.4-.1-.8-.2-1.2-.1-.4-.3-.7-.5-1s-.5-.5-.8-.7c-.3-.2-.7-.3-1.1-.3-.4 0-.7.1-1 .3-.3.2-.5.4-.7.7s-.4.6-.5 1c-.1.4-.1.8-.1 1.2v.2zm7.6 0v-.3c0-.6.1-1.1.2-1.6s.4-1 .7-1.3.7-.7 1.2-.9 1-.3 1.7-.3c.5 0 .9.1 1.3.2.4.2.8.4 1 .6.3.3.5.6.7 1 .2.4.3.8.3 1.2h-1.4c0-.3-.1-.5-.2-.7s-.2-.4-.4-.6-.4-.3-.6-.4c-.2-.1-.5-.1-.8-.1-.4 0-.8.1-1.1.3-.3.2-.5.4-.7.7-.2.3-.3.6-.4 1-.1.4-.1.7-.1 1.1v.3c0 .4 0 .7.1 1.1.1.4.2.7.4 1s.4.5.7.7c.3.2.7.3 1.1.3.3 0 .5 0 .7-.1l.6-.3s.3-.3.4-.5.2-.4.2-.7h1.4c0 .4-.1.7-.3 1.1s-.4.6-.7.9c-.3.3-.7.5-1 .6s-.8.2-1.3.2c-.6 0-1.2-.1-1.7-.3s-.9-.5-1.2-.9-.5-.8-.7-1.3-.1-1.4-.1-2zm8.7 4.1v-12h1.4v7.3l.8-.9 2.6-2.8h1.8l-3.3 3.5 3.7 4.9h-1.7l-2.9-3.9-.9.9v3h-1.5zm7.5-3.9v-.3c0-.7.1-1.3.3-1.8s.5-1 .8-1.4.7-.7 1.2-.8.9-.3 1.4-.3c.6 0 1.1.1 1.6.3s.8.5 1.1.9.5.8.6 1.3.2 1.1.2 1.6v.6h-5.7c0 .4.1.8.2 1.1s.3.6.5.9.5.4.8.6.6.2 1 .2c.5 0 .9-.1 1.3-.3s.7-.5.9-.8l.9.7c-.1.2-.3.4-.5.6s-.4.4-.7.5-.6.3-.9.4-.7.1-1.1.1c-.6 0-1.1-.1-1.6-.3s-.9-.5-1.2-.8-.6-.8-.8-1.3-.3-1.1-.3-1.7zm1.5-1.1h4.2v-.1c0-.3-.1-.6-.1-.8-.1-.3-.2-.5-.4-.7-.2-.2-.4-.4-.6-.5-.3-.1-.6-.2-.9-.2-.3 0-.6.1-.8.2s-.5.3-.7.5c-.2.2-.4.5-.5.8s-.2.4-.2.8zm6.2-3.5h1.6l2.1 6.3 2-6.3h1.5l-3.4 9.8c-.1.2-.2.4-.3.7s-.3.5-.5.7-.4.4-.7.5-.6.2-1 .2h-.8v-1.2h.4c.2 0 .5 0 .6-.1s.4-.1.5-.2c.1-.1.3-.2.4-.4.1-.2.2-.4.3-.7l.3-.9-3-8.4zm12.6 8.5v-11.4h7.1v1.2h-5.6v3.7h4.9v1.2h-4.9v4h5.7v1.2H195zm8.7 0v-8.5h1.4v.9c.3-.3.6-.6 1.1-.8s.9-.3 1.4-.3c.5 0 1 .1 1.4.3s.7.6 1 1c.3-.4.6-.7 1.1-1s1-.4 1.6-.4c.5 0 .9.1 1.2.2s.6.3.9.6c.2.3.4.6.6 1s.2.8.2 1.4v5.6h-1.4v-5.6c0-.4 0-.6-.1-.9s-.2-.4-.4-.6-.3-.2-.6-.3-.5-.1-.7-.1c-.3 0-.6 0-.8.1-.2.1-.4.2-.6.4-.2.2-.3.3-.4.6-.1.2-.2.4-.2.7v5.6H209v-5.6c0-.3 0-.6-.1-.8s-.2-.4-.4-.6-.3-.3-.6-.3-.5-.1-.7-.1c-.5 0-.9.1-1.2.3s-.5.5-.7.9v6.2h-1.6zm14 3.2v-11.7h1.3l.1.9c.3-.4.6-.6 1-.8.4-.2.9-.3 1.4-.3.5 0 1 .1 1.4.3s.8.5 1 .9.5.8.6 1.4.2 1.1.2 1.8v.2c0 .6-.1 1.2-.2 1.7s-.4 1-.6 1.4-.6.7-1 .9-.9.3-1.4.3c-.5 0-1-.1-1.4-.3s-.7-.4-1-.7v4.1h-1.4zm1.4-5.4c.1.2.2.3.3.5s.3.3.4.4.3.2.5.2.4.1.7.1c.4 0 .7-.1 1-.3s.5-.4.7-.7.3-.6.4-1 .1-.8.1-1.2v-.2c0-.4 0-.8-.1-1.2s-.2-.7-.4-1-.4-.5-.7-.7-.6-.2-1-.2c-.2 0-.5 0-.7.1s-.4.1-.5.2-.3.2-.4.4-.2.3-.3.5v4.1zm7.6 2.2v-12h1.4v12h-1.4zm3.3-4.1v-.2c0-.6.1-1.2.3-1.7s.4-1 .8-1.4.7-.7 1.2-.9c.5-.2 1-.3 1.6-.3.6 0 1.1.1 1.6.3.5.2.9.5 1.2.9s.6.8.8 1.4c.2.5.3 1.1.3 1.7v.2c0 .6-.1 1.2-.3 1.7-.2.5-.4 1-.8 1.4s-.7.7-1.2.9c-.5.2-1 .3-1.6.3s-1.1-.1-1.6-.3c-.5-.2-.9-.5-1.2-.9s-.6-.8-.8-1.4-.3-1.1-.3-1.7zm1.4 0c0 .4 0 .8.1 1.2.1.4.2.7.5 1s.5.5.8.7.7.3 1.1.3c.4 0 .7-.1 1-.3s.6-.4.8-.7.3-.6.5-1c.1-.4.2-.8.2-1.2v-.2c0-.4-.1-.8-.2-1.2-.1-.4-.3-.7-.5-1s-.5-.5-.8-.7c-.3-.2-.7-.3-1.1-.3-.4 0-.7.1-1 .3-.3.2-.5.4-.7.7s-.4.6-.5 1c-.1.4-.1.8-.1 1.2v.2zm7-4.4h1.6l2.1 6.3 2-6.3h1.5l-3.4 9.8c-.1.2-.2.4-.3.7s-.3.5-.5.7-.4.4-.7.5-.6.2-1 .2h-.8v-1.2h.4c.2 0 .5 0 .6-.1s.4-.1.5-.2c.1-.1.3-.2.4-.4.1-.2.2-.4.3-.7l.3-.9-3-8.4zm8.4 8.5v-8.5h1.4v.9c.3-.3.6-.6 1.1-.8s.9-.3 1.4-.3c.5 0 1 .1 1.4.3s.7.6 1 1c.3-.4.6-.7 1.1-1s1-.4 1.6-.4c.5 0 .9.1 1.2.2s.6.3.9.6c.2.3.4.6.6 1s.2.8.2 1.4v5.6h-1.4v-5.6c0-.4 0-.6-.1-.9s-.2-.4-.4-.6-.3-.2-.6-.3c-.2-.1-.5-.1-.7-.1-.3 0-.6 0-.8.1-.2.1-.4.2-.6.4-.2.2-.3.3-.4.6-.1.2-.2.4-.2.7v5.6H252v-5.6c0-.3 0-.6-.1-.8s-.2-.4-.4-.6-.3-.3-.6-.3-.5-.1-.7-.1c-.5 0-.9.1-1.2.3s-.5.5-.7.9v6.2h-1.5zm13.6-3.9v-.3c0-.7.1-1.3.3-1.8s.5-1 .8-1.4.7-.7 1.2-.8.9-.3 1.4-.3c.6 0 1.1.1 1.6.3s.8.5 1.1.9.5.8.6 1.3.2 1.1.2 1.6v.6h-5.7c0 .4.1.8.2 1.1s.3.6.5.9.5.4.8.6.6.2 1 .2c.5 0 .9-.1 1.3-.3s.7-.5.9-.8l.9.7c-.1.2-.3.4-.5.6s-.4.4-.7.5-.6.3-.9.4-.7.1-1.1.1c-.6 0-1.1-.1-1.6-.3s-.9-.5-1.2-.8-.6-.8-.8-1.3-.3-1.1-.3-1.7zm1.5-1.1h4.2v-.1c0-.3-.1-.6-.1-.8-.1-.3-.2-.5-.4-.7-.2-.2-.4-.4-.6-.5-.3-.1-.6-.2-.9-.2-.3 0-.6.1-.8.2s-.5.3-.7.5c-.2.2-.4.5-.5.8s-.2.4-.2.8zm7.2 5v-8.5h1.4v1.1c.3-.4.7-.7 1.1-.9s.9-.3 1.4-.3c.4 0 .8.1 1.1.2s.6.3.9.5.4.6.5 1 .2.9.2 1.4v5.5h-1.4v-5.6c0-.3 0-.6-.1-.8l-.3-.6s-.3-.3-.5-.3-.5-.1-.7-.1c-.5 0-.9.1-1.2.4s-.6.6-.8 1v6h-1.6zm7.8-7.3v-1.1h1.5v-2h1.4v2h1.6v1.1h-1.6v5.2c0 .2 0 .4.1.5.1.1.1.2.2.3.1.1.2.1.3.1h1v1.1c-.1 0-.3.1-.4.1-.2 0-.4.1-.7.1-.3 0-.5 0-.8-.1s-.4-.2-.6-.4-.3-.4-.4-.7-.2-.6-.2-1.1v-5.2h-1.4zm9.7 4.2c0-.3.1-.7.2-.9.1-.3.3-.5.5-.8.2-.2.4-.5.7-.7.3-.2.6-.5.9-.7-.2-.2-.4-.5-.5-.7s-.3-.4-.4-.6l-.3-.6s-.1-.4-.1-.7c0-.4.1-.8.2-1.2.1-.3.3-.6.6-.9.3-.2.5-.4.9-.5s.7-.2 1.2-.2c.4 0 .8.1 1.1.2.3.1.6.3.8.5s.4.5.5.8c.1.3.2.6.2.9 0 .3 0 .5-.1.8s-.2.4-.3.6c-.1.2-.3.4-.5.6s-.4.3-.6.5l-.9.6 2.5 3c.2-.3.3-.7.4-1s.1-.8.1-1.2h1.3c0 .7-.1 1.3-.2 1.8-.2.6-.4 1.1-.7 1.5l1.6 1.9H294l-.8-.9c-.2.2-.4.3-.6.5-.2.1-.5.2-.7.3-.3.1-.5.2-.8.2-.3 0-.5.1-.8.1-.6 0-1.1-.1-1.5-.2s-.8-.4-1.2-.7c-.3-.3-.6-.6-.7-1s-.3-.8-.3-1.3zm1.5 0c0 .3 0 .5.1.8s.2.5.4.6c.2.2.4.3.7.4.3.1.6.2 1 .2s.7-.1 1.1-.2.7-.4 1-.6l-2.8-3.3-.3.2c-.3.2-.5.4-.7.6s-.3.4-.4.5c-.1.2-.1.3-.2.4s.1.4.1.4zm.9-5.7c0 .3.1.6.3.9s.4.6.7 1l.8-.6c.2-.1.3-.2.4-.3s.2-.2.3-.4.2-.3.2-.4c0-.1.1-.3.1-.5s0-.3-.1-.5c-.1-.1-.1-.3-.3-.4-.1-.1-.3-.2-.4-.3s-.4-.1-.6-.1c-.2 0-.4 0-.6.1s-.3.2-.4.3-.2.3-.3.5c-.1.3-.1.5-.1.7zm10.7-1.4v-1.2h8.8v1.2h-3.6V142h-1.5v-10.1h-3.7zm9.5 10.2v-8.5h1.4v1c.2-.3.5-.6.8-.8s.7-.3 1.2-.3h.4s.2 0 .3.1v1.3h-.7c-.5 0-.9.1-1.2.3s-.6.5-.7.9v6h-1.5zm4.8-2.4c0-.5.1-.9.3-1.2s.4-.6.8-.9.7-.4 1.2-.5 1-.2 1.6-.2h1.4v-.7c0-.5-.2-.9-.5-1.2s-.7-.4-1.3-.4c-.3 0-.5 0-.7.1l-.6.3-.4.4c-.1.2-.1.3-.1.5h-1.4c0-.3.1-.6.2-.9.2-.3.4-.6.7-.8s.6-.4 1.1-.6c.4-.1.9-.2 1.4-.2.5 0 .9.1 1.3.2s.7.3 1 .5.5.5.6.9c.2.4.2.8.2 1.2v3.9c0 .3 0 .6.1.9s.1.6.2.8v.1h-1.5c-.1-.1-.1-.2-.1-.4s-.1-.3-.1-.5c-.1.1-.3.3-.5.4l-.6.3s-.4.2-.7.2c-.2.1-.5.1-.7.1-.4 0-.8-.1-1.2-.2s-.7-.3-.9-.5c-.2-.2-.4-.5-.6-.8-.1-.1-.2-.4-.2-.8zm1.5-.2c0 .2 0 .4.1.6s.2.3.3.5c.1.1.3.2.5.3.2.1.4.1.7.1.3 0 .5 0 .7-.1l.6-.3c.2-.1.4-.3.5-.4.1-.2.2-.3.3-.5V138H318c-.8 0-1.5.1-1.9.4s-.6.6-.6 1.1zm7.4-8.1c0-.2.1-.4.2-.6s.4-.2.6-.2.5.1.6.2.2.4.2.6-.1.4-.2.6-.4.2-.6.2-.5-.1-.6-.2-.2-.4-.2-.6zm.1 10.7v-8.5h1.4v8.5H323zm3.7 0v-8.5h1.4v1.1c.3-.4.7-.7 1.1-.9s.9-.3 1.4-.3c.4 0 .8.1 1.1.2s.6.3.9.5.4.6.5 1 .2.9.2 1.4v5.5h-1.4v-5.6c0-.3 0-.6-.1-.8l-.3-.6s-.3-.3-.5-.3-.5-.1-.7-.1c-.5 0-.9.1-1.2.4s-.6.6-.8 1v6h-1.6zm8.7-10.7c0-.2.1-.4.2-.6s.4-.2.6-.2.5.1.6.2.2.4.2.6-.1.4-.2.6-.4.2-.6.2-.5-.1-.6-.2-.2-.4-.2-.6zm.2 10.7v-8.5h1.4v8.5h-1.4zm3.6 0v-8.5h1.4v1.1c.3-.4.7-.7 1.1-.9s.9-.3 1.4-.3c.4 0 .8.1 1.1.2s.6.3.9.5.4.6.5 1 .2.9.2 1.4v5.5h-1.4v-5.6c0-.3 0-.6-.1-.8l-.3-.6s-.3-.3-.5-.3-.5-.1-.7-.1c-.5 0-.9.1-1.2.4s-.6.6-.8 1v6h-1.6zm8.4-4.1v-.2c0-.6.1-1.2.2-1.8.2-.5.4-1 .7-1.4.3-.4.6-.7 1-.9.4-.2.9-.3 1.4-.3.5 0 1 .1 1.4.3.4.2.7.5 1 .8l.1-.9h1.3v8.3c0 .6-.1 1.1-.3 1.5-.2.4-.4.8-.7 1.1s-.7.5-1.1.7c-.4.2-.9.2-1.5.2-.2 0-.5 0-.8-.1-.3 0-.6-.1-.9-.2s-.6-.3-.8-.4-.5-.4-.7-.7l.7-.9.5.5s.4.3.6.4c.2.1.4.2.6.2s.4.1.6.1c.3 0 .6 0 .9-.1.3-.1.5-.2.7-.4.2-.2.3-.4.5-.7.1-.3.2-.6.2-1v-.7c-.3.3-.6.6-1 .7s-.8.3-1.4.3c-.5 0-1-.1-1.4-.3s-.8-.5-1-.9c-.3-.4-.5-.8-.7-1.4 0-.6-.1-1.2-.1-1.8zm1.5 0c0 .4 0 .8.1 1.2s.2.7.4 1 .4.5.7.7c.3.2.6.2 1 .2.3 0 .5 0 .7-.1.2-.1.4-.1.6-.3.2-.1.3-.2.4-.4.1-.2.2-.3.3-.5v-3.9c-.1-.2-.2-.3-.3-.5l-.4-.4c-.2-.1-.3-.2-.6-.3-.2-.1-.4-.1-.7-.1-.4 0-.7.1-1 .2-.3.2-.5.4-.7.7s-.3.6-.4 1-.1.8-.1 1.2v.3zm11.2.8h1.5c0 .4.1.7.2 1 .2.3.4.5.6.7.3.2.6.3.9.4.3.1.7.1 1.1.1.8 0 1.4-.2 1.8-.5s.6-.8.6-1.3c0-.3 0-.5-.1-.7-.1-.2-.2-.4-.4-.6-.2-.2-.5-.3-.8-.5s-.8-.3-1.3-.5c-.6-.2-1.1-.3-1.5-.6-.5-.2-.8-.4-1.2-.7-.3-.3-.6-.6-.7-.9-.2-.3-.3-.7-.3-1.2s.1-.9.3-1.2.4-.7.8-1c.3-.3.7-.5 1.2-.7.5-.2 1-.2 1.6-.2.6 0 1.2.1 1.7.3.5.2.9.4 1.3.8s.6.7.8 1.1.3.8.3 1.3H367c0-.3-.1-.6-.2-.9s-.3-.5-.5-.7c-.2-.2-.5-.4-.8-.5-.3-.1-.7-.2-1.1-.2-.4 0-.8 0-1 .1-.3.1-.5.2-.7.4-.2.2-.3.4-.4.6s-.1.5-.1.7c0 .2.1.5.2.7s.3.4.5.5.5.3.8.5c.3.1.7.3 1.2.4.6.2 1.2.4 1.7.6.5.2.9.5 1.2.8.3.3.5.6.7.9.1.3.2.7.2 1.2s-.1.9-.3 1.3-.5.7-.8 1-.8.5-1.2.6-1 .2-1.6.2c-.3 0-.7 0-1-.1-.3-.1-.7-.2-1-.3-.3-.1-.6-.3-.9-.5s-.5-.4-.7-.7c-.2-.3-.4-.5-.5-.9-.4-.1-.4-.4-.4-.8zm9.5-.8v-.3c0-.6.1-1.1.2-1.6s.4-1 .7-1.3.7-.7 1.2-.9 1-.3 1.7-.3c.5 0 .9.1 1.3.2.4.2.8.4 1 .6.3.3.5.6.7 1 .2.4.3.8.3 1.2h-1.4c0-.3-.1-.5-.2-.7s-.2-.4-.4-.6-.4-.3-.6-.4c-.2-.1-.5-.1-.8-.1-.4 0-.8.1-1.1.3-.3.2-.5.4-.7.7-.2.3-.3.6-.4 1-.1.4-.1.7-.1 1.1v.3c0 .4 0 .7.1 1.1.1.4.2.7.4 1s.4.5.7.7c.3.2.7.3 1.1.3.3 0 .5 0 .7-.1l.6-.3s.3-.3.4-.5.2-.4.2-.7h1.4c0 .4-.1.7-.3 1.1s-.4.6-.7.9c-.3.3-.7.5-1 .6s-.8.2-1.3.2c-.6 0-1.2-.1-1.7-.3s-.9-.5-1.2-.9-.5-.8-.7-1.3-.1-1.4-.1-2zm8.7 4.1v-12h1.4v4.6c.3-.4.7-.7 1.1-.9s.9-.3 1.4-.3c.4 0 .8.1 1.1.2s.6.3.9.5.4.6.5 1 .2.9.2 1.4v5.5h-1.4v-5.6c0-.3 0-.6-.1-.8l-.3-.6s-.3-.3-.5-.3-.5-.1-.7-.1c-.5 0-.9.1-1.2.4s-.6.6-.8 1v6h-1.6zm8.3-3.9v-.3c0-.7.1-1.3.3-1.8s.5-1 .8-1.4.7-.7 1.2-.8.9-.3 1.4-.3c.6 0 1.1.1 1.6.3s.8.5 1.1.9.5.8.6 1.3.2 1.1.2 1.6v.6h-5.7c0 .4.1.8.2 1.1s.3.6.5.9.5.4.8.6.6.2 1 .2c.5 0 .9-.1 1.3-.3s.7-.5.9-.8l.9.7c-.1.2-.3.4-.5.6s-.4.4-.7.5-.6.3-.9.4-.7.1-1.1.1c-.6 0-1.1-.1-1.6-.3s-.9-.5-1.2-.8-.6-.8-.8-1.3-.3-1.1-.3-1.7zm1.5-1.1h4.2v-.1c0-.3-.1-.6-.1-.8-.1-.3-.2-.5-.4-.7-.2-.2-.4-.4-.6-.5-.3-.1-.6-.2-.9-.2-.3 0-.6.1-.8.2s-.5.3-.7.5c-.2.2-.4.5-.5.8s-.1.4-.2.8zm7.3 5v-8.5h1.4v.9c.3-.3.6-.6 1.1-.8s.9-.3 1.4-.3c.5 0 1 .1 1.4.3s.7.6 1 1c.3-.4.6-.7 1.1-1s1-.4 1.6-.4c.5 0 .9.1 1.2.2s.6.3.9.6c.2.3.4.6.6 1s.2.8.2 1.4v5.6H406v-5.6c0-.4 0-.6-.1-.9s-.2-.4-.4-.6-.3-.2-.6-.3-.5-.1-.7-.1c-.3 0-.6 0-.8.1-.2.1-.4.2-.6.4-.2.2-.3.3-.4.6-.1.2-.2.4-.2.7v5.6h-1.4v-5.6c0-.3 0-.6-.1-.8s-.2-.4-.4-.6-.3-.3-.6-.3-.5-.1-.7-.1c-.5 0-.9.1-1.2.3s-.5.5-.7.9v6.2h-1.5zm13.6-3.9v-.3c0-.7.1-1.3.3-1.8s.5-1 .8-1.4.7-.7 1.2-.8.9-.3 1.4-.3c.6 0 1.1.1 1.6.3s.8.5 1.1.9.5.8.6 1.3.2 1.1.2 1.6v.6h-5.7c0 .4.1.8.2 1.1s.3.6.5.9.5.4.8.6.6.2 1 .2c.5 0 .9-.1 1.3-.3s.7-.5.9-.8l.9.7c-.1.2-.3.4-.5.6s-.4.4-.7.5-.6.3-.9.4-.7.1-1.1.1c-.6 0-1.1-.1-1.6-.3s-.9-.5-1.2-.8-.6-.8-.8-1.3-.3-1.1-.3-1.7zm1.5-1.1h4.2v-.1c0-.3-.1-.6-.1-.8-.1-.3-.2-.5-.4-.7-.2-.2-.4-.4-.6-.5-.3-.1-.6-.2-.9-.2-.3 0-.6.1-.8.2s-.5.3-.7.5c-.2.2-.4.5-.5.8s-.2.4-.2.8z" fill="#1E1E1C"/><path fill="#B3B2B2" d="M87.8 140c5.9 1.3 11.8 2.5 17.7 3.5.7.1 1.5.3 2.2.3.8.1 1.5.1 2.2.1 1.4 0 2.9-.3 4.3-.7 1.4-.4 2.7-1 3.9-1.8 1.2-.8 2.2-1.7 2.9-2.8.1-.1.2-.3.2-.4l.1-.2.1-.1v-.1.1c.1-.4.2-.8.2-1 .1-.5 0-1.3 0-1.9-.2-1.4-.5-2.8-.9-4.3-.2-.7-.3-1.5-.4-2.4v-.7l.1-.8c0-.3.1-.6.2-.8.1-.3.3-.6.5-.9 1-1.2 1.9-2.2 2.8-3.4.8-1.2 1.6-2.4 2-3.6.5-1.2.7-2.4.5-3.5 0-.3-.1-.5-.2-.8-.1-.4-.2-.7-.3-1.1-.2-.8-.4-1.6-.5-2.4-.1-.8-.2-1.7-.2-2.6 0-.4 0-.9.1-1.4 0-.2.1-.5.1-.7.1-.3.1-.4.3-.9.2-.6.8-1.1 1.4-1.2h.2c.8-.1 1.7-.3 2.5-.5s1.7-.5 2.5-.7c.8-.3 1.6-.6 2.3-.9.7-.3 1.4-.7 1.8-1.1l.3-.3c0-.1.1-.2.2-.2v-.1c0-.1-.1.6-.1.3v-.4c0-.1 0 0 0 0v.1-.2c0-.1-.1-.3-.1-.5-.1-.3-.2-.7-.3-1.1-.6-1.6-1.3-3.2-2.1-4.8-1.5-3.2-3.3-6.4-5-9.6l-2.7-4.7-2.8-4.7c-.6-1-.6-2.2 0-3.2l.1-.2.6-1 .6-1c.4-.7.7-1.3 1.1-2 .3-.7.7-1.3 1-2 .1-.3.3-.6.4-.9l.2-.4.1-.4v-.1c.6-1.9 2.5-2.9 4.4-2.3s2.9 2.5 2.3 4.4c0 .1 0 .1-.1.2l-.3.7-.3.7-.6 1.2c-.4.8-.8 1.5-1.2 2.3-.4.7-.9 1.4-1.3 2.1l-.7 1-.7 1.1.1-3.4c.9 1.7 1.7 3.3 2.6 4.9l2.5 5c1.6 3.3 3.2 6.7 4.6 10.1.7 1.7 1.4 3.5 2 5.4.1.5.3 1 .4 1.5.1.3.1.5.1.9 0 .2 0 .3.1.5v1.5c.1-.3-.1.4-.1.3v.1l-.1.1c-.2.4-.4.8-.6 1.1-.2.3-.5.6-.7.8-.2.2-.5.4-.7.6-1 .7-2 1.2-2.9 1.6-1 .4-1.9.7-2.9.9-.9.2-1.9.5-2.8.6-1 .2-1.9.3-2.9.5l1.6-1.2c0-.1 0 0 0 0l-.1.2c0 .1-.1.3-.1.4 0 .3-.1.6-.1.9v1.9c.1.7.2 1.4.3 2 .1.3.2.7.3 1.1.1.4.2.9.2 1.4.2 1.9-.3 3.7-1 5.2s-1.6 2.9-2.6 4.1c-1 1.2-2.1 2.4-3.1 3.4-.1 0-.3.5-.2 1.2 0 .6.1 1.3.2 2.1.2 1.4.5 3 .6 4.6 0 .8.1 1.6-.1 2.6-.1.5-.2.8-.4 1.2-.1.2 0 .1 0 .1v.1l-.1.1-.2.3c-.1.2-.2.4-.4.5-1 1.4-2.3 2.4-3.7 3.2-1.4.8-2.9 1.4-4.4 1.8-1.5.4-3.1.6-4.7.5-.8-.1-1.6-.1-2.3-.3-.8-.1-1.5-.3-2.2-.5-6.1-1.1-12-2.6-17.8-4.2z"/><linearGradient id="a" gradientUnits="userSpaceOnUse" x1="18.843" y1="69.671" x2="16.426" y2="81.756"><stop offset=".005" stop-color="#3178BD"/><stop offset="1" stop-color="#1FB9D7"/></linearGradient><path fill="url(#a)" d="M23.4 73.5c2.5 5.7-3 11.2-8.7 8.7-1.3-.6-2.4-1.7-3-3-2.5-5.7 3-11.2 8.7-8.7 1.3.5 2.4 1.6 3 3z"/><linearGradient id="b" gradientUnits="userSpaceOnUse" x1="19.997" y1="91.675" x2="24.398" y2="80.472"><stop offset=".005" stop-color="#3065AE"/><stop offset="1" stop-color="#10AAD9"/></linearGradient><circle fill="url(#b)" cx="22.2" cy="86.1" r="6"/><linearGradient id="c" gradientUnits="userSpaceOnUse" x1="20.653" y1="105.915" x2="25.918" y2="92.515"><stop offset="0" stop-color="#0F9BD8"/><stop offset=".354" stop-color="#2088C9"/><stop offset=".772" stop-color="#2D74BA"/><stop offset="1" stop-color="#316CB4"/></linearGradient><circle fill="url(#c)" cx="23.3" cy="99.2" r="7.2"/><linearGradient id="d" gradientUnits="userSpaceOnUse" x1="30.977" y1="114.617" x2="37.424" y2="98.207"><stop offset="0" stop-color="#3C6DB4"/><stop offset=".082" stop-color="#3E75BA"/><stop offset=".295" stop-color="#4386C7"/><stop offset=".516" stop-color="#4793CF"/><stop offset=".746" stop-color="#4A9AD4"/><stop offset="1" stop-color="#4C9CD6"/></linearGradient><circle fill="url(#d)" cx="34.2" cy="106.4" r="8.8"/><linearGradient id="e" gradientUnits="userSpaceOnUse" x1="46.077" y1="105.939" x2="44.347" y2="114.585"><stop offset=".005" stop-color="#3178BD"/><stop offset="1" stop-color="#1FB9D7"/></linearGradient><path fill="url(#e)" d="M49.3 108.6c1.8 4.1-2.1 8-6.2 6.2-1-.4-1.7-1.2-2.1-2.1-1.8-4.1 2.1-8 6.2-6.2.9.4 1.7 1.2 2.1 2.1z"/><linearGradient id="f" gradientUnits="userSpaceOnUse" x1="91.414" y1="69.157" x2="90.972" y2="58.113" gradientTransform="translate(-.001 -.001)"><stop offset=".005" stop-color="#233366"/><stop offset="1" stop-color="#2757A4"/></linearGradient><path fill="url(#f)" d="M96.2 62.9c.8 3.7-2.4 6.9-6.1 6.1-1.9-.4-3.4-1.9-3.8-3.8-.8-3.7 2.4-6.9 6.1-6.1 1.8.5 3.3 2 3.8 3.8z"/><linearGradient id="g" gradientUnits="userSpaceOnUse" x1="71.233" y1="95.475" x2="70.791" y2="84.43" gradientTransform="translate(-.001 -.001)"><stop offset=".005" stop-color="#233366"/><stop offset="1" stop-color="#2757A4"/></linearGradient><path fill="url(#g)" d="M76 89.2c.8 3.7-2.4 6.9-6.1 6.1-1.9-.4-3.4-1.9-3.8-3.8-.8-3.7 2.4-6.9 6.1-6.1 1.9.5 3.4 2 3.8 3.8z"/><linearGradient id="h" gradientUnits="userSpaceOnUse" x1="52.416" y1="110.906" x2="51.651" y2="91.786" gradientTransform="translate(-.001 -.001)"><stop offset=".005" stop-color="#212550"/><stop offset="1" stop-color="#2757A4"/></linearGradient><circle fill="url(#h)" cx="52.1" cy="102.1" r="8.8"/><linearGradient id="i" gradientUnits="userSpaceOnUse" x1="71.381" y1="90.381" x2="70.616" y2="71.261" gradientTransform="translate(-.001 -.001)"><stop offset=".005" stop-color="#212550"/><stop offset="1" stop-color="#2757A4"/></linearGradient><circle fill="url(#i)" cx="71" cy="81.6" r="8.8"/><linearGradient id="j" gradientUnits="userSpaceOnUse" x1="25.841" y1="35.752" x2="25.077" y2="16.631" gradientTransform="matrix(.789 0 0 .789 63.234 51.524)"><stop offset=".005" stop-color="#263778"/><stop offset="1" stop-color="#2E68B1"/></linearGradient><circle fill="url(#j)" cx="83.4" cy="72.8" r="6.9"/><linearGradient id="k" gradientUnits="userSpaceOnUse" x1="50.16" y1="8.599" x2="49.718" y2="-2.446" gradientTransform="matrix(.78 0 0 .78 78.516 44.975)"><stop offset=".005" stop-color="#3E277F"/><stop offset="1" stop-color="#7C2D87"/></linearGradient><path fill="url(#k)" d="M121.3 46.8c.6 2.9-1.9 5.4-4.8 4.8-1.5-.3-2.6-1.5-3-3-.6-2.9 1.9-5.4 4.8-4.8 1.5.4 2.7 1.6 3 3z"/><linearGradient id="l" gradientUnits="userSpaceOnUse" x1="61.481" y1="6.967" x2="61.039" y2="-4.078" gradientTransform="matrix(.78 0 0 .78 78.516 44.975)"><stop offset=".005" stop-color="#4D2681"/><stop offset="1" stop-color="#7C2D87"/></linearGradient><path fill="url(#l)" d="M130.2 45.6c.6 2.9-1.9 5.4-4.8 4.8-1.5-.3-2.6-1.5-3-3-.6-2.9 1.9-5.4 4.8-4.8 1.5.3 2.6 1.5 3 3z"/><linearGradient id="m" gradientUnits="userSpaceOnUse" x1="-70.099" y1="-84.24" x2="-70.541" y2="-95.285" gradientTransform="matrix(.541 0 0 .541 169.489 91.915)"><stop offset=".005" stop-color="#472B86"/><stop offset="1" stop-color="#7C2D87"/></linearGradient><path fill="url(#m)" d="M134.1 42.9c.4 2-1.3 3.8-3.3 3.3-1-.2-1.8-1-2.1-2.1-.4-2 1.3-3.8 3.3-3.3 1.1.3 1.9 1.1 2.1 2.1z"/><linearGradient id="n" gradientUnits="userSpaceOnUse" x1="-45.017" y1="-121.785" x2="-45.458" y2="-132.829" gradientTransform="matrix(.541 0 0 .541 169.489 91.915)"><stop offset=".005" stop-color="#923089"/><stop offset="1" stop-color="#7C2D87"/></linearGradient><path fill="url(#n)" d="M147.7 22.6c.4 2-1.3 3.8-3.3 3.3-1-.2-1.8-1-2.1-2.1-.4-2 1.3-3.8 3.3-3.3 1.1.3 1.9 1.1 2.1 2.1z"/><linearGradient id="o" gradientUnits="userSpaceOnUse" x1="79.481" y1="-8.747" x2="79.039" y2="-19.792" gradientTransform="matrix(.78 0 0 .78 78.516 44.975)"><stop offset=".005" stop-color="#AC1472"/><stop offset=".968" stop-color="#AB3C8E"/></linearGradient><path fill="url(#o)" d="M144.2 33.3c.6 2.9-1.9 5.4-4.8 4.8-1.5-.3-2.6-1.5-3-3-.6-2.9 1.9-5.4 4.8-4.8 1.5.4 2.7 1.5 3 3z"/><linearGradient id="p" gradientUnits="userSpaceOnUse" x1="107.57" y1="59.696" x2="107.128" y2="48.651" gradientTransform="translate(-.001 -.001)"><stop offset=".005" stop-color="#3B338A"/><stop offset=".223" stop-color="#3F338A"/><stop offset=".454" stop-color="#4A328A"/><stop offset=".691" stop-color="#5D3189"/><stop offset=".932" stop-color="#752E88"/><stop offset="1" stop-color="#7C2D87"/></linearGradient><path fill="url(#p)" d="M112.3 53.5c.8 3.7-2.4 6.9-6.1 6.1-1.9-.4-3.4-1.9-3.8-3.8-.8-3.7 2.4-6.9 6.1-6.1 1.9.4 3.4 1.9 3.8 3.8z"/><linearGradient id="q" gradientUnits="userSpaceOnUse" x1="99.396" y1="67.497" x2="98.842" y2="53.627"><stop offset=".005" stop-color="#2B3083"/><stop offset="1" stop-color="#7C2D87"/></linearGradient><circle fill="url(#q)" cx="99.1" cy="60.6" r="6.9"/><linearGradient id="r" gradientUnits="userSpaceOnUse" x1="1.309" y1="63.726" x2=".693" y2="48.333" gradientTransform="matrix(.789 0 0 .789 63.234 51.524)"><stop offset=".005" stop-color="#263778"/><stop offset="1" stop-color="#2E68B1"/></linearGradient><circle fill="url(#r)" cx="64" cy="96.2" r="5.6"/><linearGradient id="s" gradientUnits="userSpaceOnUse" x1="32.432" y1="97.266" x2="32.24" y2="92.472" gradientTransform="translate(-.001 -.001)"><stop offset="0" stop-color="#4BC2EF"/><stop offset=".057" stop-color="#4BBDEC"/><stop offset=".277" stop-color="#4BAFE3"/><stop offset=".503" stop-color="#4BA5DC"/><stop offset=".739" stop-color="#4C9ED8"/><stop offset="1" stop-color="#4C9CD6"/></linearGradient><circle fill="url(#s)" cx="32.3" cy="95.1" r="2.2"/><linearGradient id="t" gradientUnits="userSpaceOnUse" x1="14.965" y1="57.639" x2="14.754" y2="49.62"><stop offset=".005" stop-color="#034324"/><stop offset="1" stop-color="#0C622D"/></linearGradient><circle fill="url(#t)" cx="14.8" cy="51.9" r="6.7"/><linearGradient id="u" gradientUnits="userSpaceOnUse" x1="16.233" y1="31.942" x2="24.388" y2="42.074"><stop offset=".005" stop-color="#269638"/><stop offset="1" stop-color="#0C622D"/></linearGradient><circle fill="url(#u)" cx="20.6" cy="37.3" r="5.7"/><linearGradient id="v" gradientUnits="userSpaceOnUse" x1="14.007" y1="40.851" x2="20.587" y2="49.027"><stop offset=".005" stop-color="#269638"/><stop offset="1" stop-color="#0C622D"/></linearGradient><circle fill="url(#v)" cx="17.5" cy="45.2" r="4.6"/><linearGradient id="w" gradientUnits="userSpaceOnUse" x1="26.711" y1="26.924" x2="31.086" y2="15.788"><stop offset="0" stop-color="#0C622D"/><stop offset=".327" stop-color="#137030"/><stop offset=".994" stop-color="#269638"/><stop offset="1" stop-color="#269638"/></linearGradient><circle fill="url(#w)" cx="28.9" cy="21.4" r="6"/><linearGradient id="x" gradientUnits="userSpaceOnUse" x1="92.948" y1="74.872" x2="92.769" y2="70.4" gradientTransform="translate(-.001 -.001)"><stop offset=".005" stop-color="#212550"/><stop offset="1" stop-color="#2757A4"/></linearGradient><path fill="url(#x)" d="M94.4 71.3c1.7 2.2-.8 4.7-3 3-1.7-2.2.8-4.7 3-3z"/><linearGradient id="y" gradientUnits="userSpaceOnUse" x1="15.016" y1="69.841" x2="14.805" y2="61.822"><stop offset=".005" stop-color="#288235"/><stop offset="1" stop-color="#2EA437"/></linearGradient><circle fill="url(#y)" cx="14.9" cy="64.1" r="6.7"/><linearGradient id="z" gradientUnits="userSpaceOnUse" x1="24.174" y1="37.03" x2="28.549" y2="25.894"><stop offset=".005" stop-color="#269638"/><stop offset="1" stop-color="#2EA437"/></linearGradient><circle fill="url(#z)" cx="26.4" cy="31.5" r="6"/><linearGradient id="A" gradientUnits="userSpaceOnUse" x1="37.223" y1="20.944" x2="41.598" y2="9.808"><stop offset="0" stop-color="#E2A106"/><stop offset=".454" stop-color="#EEB306"/><stop offset="1" stop-color="#FFCD07"/></linearGradient><circle fill="url(#A)" cx="39.4" cy="15.4" r="6"/><linearGradient id="B" gradientUnits="userSpaceOnUse" x1="52.512" y1="11.095" x2="55.703" y2="2.973"><stop offset="0" stop-color="#D4A003"/><stop offset=".539" stop-color="#E9B604"/><stop offset="1" stop-color="#FFCD07"/></linearGradient><circle fill="url(#B)" cx="54.1" cy="7" r="4.4"/><linearGradient id="C" gradientUnits="userSpaceOnUse" x1="44.505" y1="19.166" x2="48.567" y2="8.826"><stop offset="0" stop-color="#E4AB02"/><stop offset=".604" stop-color="#F3BE03"/><stop offset="1" stop-color="#FFCD07"/></linearGradient><circle fill="url(#C)" cx="46.5" cy="14" r="5.6"/><linearGradient id="D" gradientUnits="userSpaceOnUse" x1="104.69" y1="21.904" x2="104.69" y2="16.743" gradientTransform="matrix(1.105 0 0 1.105 -34.658 -15.317)"><stop offset="0" stop-color="#EE711C"/><stop offset=".399" stop-color="#F0821C"/><stop offset="1" stop-color="#F6A119"/></linearGradient><circle fill="url(#D)" cx="81" cy="5.8" r="3.9"/><linearGradient id="E" gradientUnits="userSpaceOnUse" x1="64.044" y1="9.653" x2="64.044" y2="4.492"><stop offset="0" stop-color="#F7A717"/><stop offset=".439" stop-color="#FAB613"/><stop offset="1" stop-color="#FFCD07"/></linearGradient><circle fill="url(#E)" cx="64" cy="6.8" r="3.6"/><linearGradient id="F" gradientUnits="userSpaceOnUse" x1="80.814" y1="13.668" x2="90.188" y2="2.211"><stop offset="0" stop-color="#EE711C"/><stop offset=".399" stop-color="#F0821C"/><stop offset="1" stop-color="#F6A119"/></linearGradient><circle fill="url(#F)" cx="86.5" cy="6.8" r="3.1"/><linearGradient id="G" gradientUnits="userSpaceOnUse" x1="92.865" y1="12.657" x2="92.865" y2="1.294"><stop offset="0" stop-color="#E9531E"/><stop offset=".669" stop-color="#EC661D"/><stop offset="1" stop-color="#EE711C"/></linearGradient><circle fill="url(#G)" cx="92.9" cy="7.7" r="4.7"/><linearGradient id="H" gradientUnits="userSpaceOnUse" x1="100.284" y1="4.95" x2="100.284" y2="11.658"><stop offset="0" stop-color="#F07E1B"/><stop offset=".517" stop-color="#ED6C1C"/><stop offset="1" stop-color="#EA571D"/></linearGradient><circle fill="url(#H)" cx="100.3" cy="7.7" r="3.1"/><linearGradient id="I" gradientUnits="userSpaceOnUse" x1="70.762" y1="8.27" x2="73.895" y2=".295"><stop offset="0" stop-color="#EE711C"/><stop offset=".216" stop-color="#F0821B"/><stop offset=".658" stop-color="#F8AD15"/><stop offset="1" stop-color="#FFCD07"/></linearGradient><circle fill="url(#I)" cx="72.3" cy="4.3" r="4.3"/><linearGradient id="J" gradientUnits="userSpaceOnUse" x1="96.658" y1="20.216" x2="106.032" y2="8.759"><stop offset="0" stop-color="#EA571D"/><stop offset=".752" stop-color="#ED6A1D"/><stop offset="1" stop-color="#EE711C"/></linearGradient><circle fill="url(#J)" cx="102.3" cy="13.3" r="3.1"/><linearGradient id="K" gradientUnits="userSpaceOnUse" x1="110.483" y1="20.208" x2="112.568" y2="12.912"><stop offset="0" stop-color="#E73D1F"/><stop offset=".432" stop-color="#E9521F"/><stop offset="1" stop-color="#EE711C"/></linearGradient><circle fill="url(#K)" cx="111.7" cy="16" r="3.1"/><linearGradient id="L" gradientUnits="userSpaceOnUse" x1="102.954" y1="22.86" x2="112.291" y2="11.447"><stop offset="0" stop-color="#E6361F"/><stop offset=".635" stop-color="#D4241A"/><stop offset="1" stop-color="#C71617"/></linearGradient><circle fill="url(#L)" cx="108.6" cy="16" r="3.1"/><linearGradient id="M" gradientUnits="userSpaceOnUse" x1="110.144" y1="59.998" x2="119.482" y2="48.586"><stop offset="0" stop-color="#7C2D87"/><stop offset=".262" stop-color="#6C3189"/><stop offset=".797" stop-color="#3D388D"/><stop offset="1" stop-color="#213A8E"/></linearGradient><circle fill="url(#M)" cx="115.8" cy="53.1" r="3.1"/><linearGradient id="N" gradientUnits="userSpaceOnUse" x1="114.698" y1="18.336" x2="112.809" y2="21.256"><stop offset="0" stop-color="#E6361F"/><stop offset=".635" stop-color="#D4241A"/><stop offset="1" stop-color="#C71617"/></linearGradient><circle fill="url(#N)" cx="113.7" cy="19.8" r="2.1"/><linearGradient id="O" gradientUnits="userSpaceOnUse" x1="841.865" y1="-526.759" x2="839.975" y2="-523.839" gradientTransform="matrix(-.203 -.979 .979 -.203 802.278 740.867)"><stop offset="0" stop-color="#E6361F"/><stop offset=".635" stop-color="#D4241A"/><stop offset="1" stop-color="#C71617"/></linearGradient><circle fill="url(#O)" cx="117.4" cy="24" r="2.1"/><linearGradient id="P" gradientUnits="userSpaceOnUse" x1="837.862" y1="-524.594" x2="836.35" y2="-522.257" gradientTransform="matrix(-.203 -.979 .979 -.203 802.278 740.867)"><stop offset="0" stop-color="#E6361F"/><stop offset=".635" stop-color="#D4241A"/><stop offset="1" stop-color="#C71617"/></linearGradient><circle fill="url(#P)" cx="120" cy="27.4" r="1.6"/><linearGradient id="Q" gradientUnits="userSpaceOnUse" x1="122.856" y1="30.61" x2="121.582" y2="32.579"><stop offset="0" stop-color="#E6361F"/><stop offset=".635" stop-color="#D4241A"/><stop offset="1" stop-color="#C71617"/></linearGradient><circle fill="url(#Q)" cx="122.2" cy="31.6" r="1.4"/><linearGradient id="R" gradientUnits="userSpaceOnUse" x1="136.469" y1="42.872" x2="136.29" y2="38.4" gradientTransform="translate(-.001 -.001)"><stop offset=".005" stop-color="#AC1472"/><stop offset=".968" stop-color="#AB3C8E"/></linearGradient><circle fill="url(#R)" cx="136.4" cy="40.8" r="2.1"/><linearGradient id="S" gradientUnits="userSpaceOnUse" x1="131.512" y1="24.533" x2="131.334" y2="20.061" gradientTransform="translate(-.001 -.001)"><stop offset=".005" stop-color="#AC1472"/><stop offset=".968" stop-color="#AB3C8E"/></linearGradient><circle fill="url(#S)" cx="131.4" cy="22.5" r="2.1"/><linearGradient id="T" gradientUnits="userSpaceOnUse" x1="126.02" y1="27.356" x2="125.842" y2="22.884" gradientTransform="translate(-.001 -.001)"><stop offset="0" stop-color="#E73355"/><stop offset=".861" stop-color="#B33283"/><stop offset="1" stop-color="#AA328A"/></linearGradient><circle fill="url(#T)" cx="125.9" cy="25.3" r="2.1"/><linearGradient id="U" gradientUnits="userSpaceOnUse" x1="-45.016" y1="-111.401" x2="-45.458" y2="-122.446" gradientTransform="matrix(.541 0 0 .541 169.489 91.915)"><stop offset=".005" stop-color="#923089"/><stop offset="1" stop-color="#7C2D87"/></linearGradient><path fill="url(#U)" d="M147.7 28.2c.4 2-1.3 3.8-3.3 3.3-1-.2-1.8-1-2.1-2.1-.4-2 1.3-3.8 3.3-3.3 1.1.3 1.9 1.1 2.1 2.1z"/><linearGradient id="V" gradientUnits="userSpaceOnUse" x1="-59.167" y1="-125.584" x2="-59.609" y2="-136.629" gradientTransform="matrix(.541 0 0 .541 169.489 91.915)"><stop offset=".005" stop-color="#923089"/><stop offset="1" stop-color="#7C2D87"/></linearGradient><path fill="url(#V)" d="M140 20.6c.4 2-1.3 3.8-3.3 3.3-1-.2-1.8-1-2.1-2.1-.4-2 1.3-3.8 3.3-3.3 1.1.2 1.9 1.1 2.1 2.1z"/><linearGradient id="W" gradientUnits="userSpaceOnUse" x1="142.342" y1="25.299" x2="142.163" y2="20.827" gradientTransform="translate(-.001 -.001)"><stop offset=".005" stop-color="#AC1472"/><stop offset=".968" stop-color="#AB3C8E"/></linearGradient><circle fill="url(#W)" cx="142.3" cy="23.2" r="2.1"/></svg>