<svg xmlns="http://www.w3.org/2000/svg" width="469.2" height="469.2" viewBox="0 0 469.2 469.2"><path d="M22.202 77.023C25.888 75.657 29.832 74.8 34 74.8h401.2c4.168 0 8.112.857 11.798 2.224L267.24 246.364c-18.3 17.25-46.975 17.25-65.28 0L22.202 77.024zm441.986 300.92c3.114-5.134 5.012-11.097 5.012-17.543V108.8c0-4.57-.932-8.915-2.57-12.9L298.41 254.368l165.78 123.576zM283.2 268.463c-13.96 11.963-31.253 18.03-48.6 18.03s-34.64-6.06-48.6-18.027L20.692 391.686c4.094 1.74 8.582 2.715 13.308 2.715h401.2c4.726 0 9.214-.97 13.308-2.712L283.2 268.464zM2.57 95.9C.933 99.885 0 104.23 0 108.8v251.6c0 6.446 1.897 12.41 5.012 17.544L170.79 254.367 2.57 95.9z"/></svg>