<?xml version="1.0" encoding="UTF-8"?><!DOCTYPE svg PUBLIC "-//W3C//DTD SVG 1.1//EN" "http://www.w3.org/Graphics/SVG/1.1/DTD/svg11.dtd"><svg xmlns="http://www.w3.org/2000/svg"><symbol id="email" viewBox="0 0 469.2 469.2"><path d="M22.202 77.023C25.888 75.657 29.832 74.8 34 74.8h401.2c4.168 0 8.112.857 11.798 2.224L267.24 246.364c-18.3 17.25-46.975 17.25-65.28 0L22.202 77.024zm441.986 300.92c3.114-5.134 5.012-11.097 5.012-17.543V108.8c0-4.57-.932-8.915-2.57-12.9L298.41 254.368l165.78 123.576zM283.2 268.463c-13.96 11.963-31.253 18.03-48.6 18.03s-34.64-6.06-48.6-18.027L20.692 391.686c4.094 1.74 8.582 2.715 13.308 2.715h401.2c4.726 0 9.214-.97 13.308-2.712L283.2 268.464zM2.57 95.9C.933 99.885 0 104.23 0 108.8v251.6c0 6.446 1.897 12.41 5.012 17.544L170.79 254.367 2.57 95.9z"/></symbol><symbol id="facebook" viewBox="0 0 96.124 96.123"><path d="M72.09.02L59.623 0C45.62 0 36.57 9.285 36.57 23.656v10.907H24.037c-1.083 0-1.96.878-1.96 1.96v15.804c0 1.083.878 1.96 1.96 1.96H36.57v39.876c0 1.083.877 1.96 1.96 1.96h16.352c1.083 0 1.96-.878 1.96-1.96V54.287h14.654c1.083 0 1.96-.877 1.96-1.96l.006-15.803c0-.52-.207-1.018-.574-1.386-.367-.368-.867-.575-1.387-.575H56.844v-9.246c0-4.444 1.06-6.7 6.848-6.7l8.398-.003c1.082 0 1.96-.878 1.96-1.96V1.98C74.048.9 73.17.022 72.09.02z"/></symbol><symbol id="link-arrow" viewBox="0 0 199.405 199.405"><path d="M99.703 199.405l99.702-99.703L99.703 0 71.418 28.285l53.244 53.244H0v36.346h124.662L71.418 171.12z"/></symbol><symbol id="play" viewBox="0 0 314.068 314.068"><path d="M293.002 78.53C249.646 3.435 153.618-22.296 78.53 21.068 3.433 64.418-22.3 160.442 21.065 235.534c43.35 75.095 139.375 100.83 214.465 57.47C310.628 249.64 336.37 153.62 293.003 78.53zM219.834 265.8c-60.067 34.694-136.894 14.108-171.576-45.97C13.568 159.76 34.16 82.935 94.23 48.26c60.07-34.69 136.894-14.106 171.578 45.97 34.685 60.077 14.098 136.887-45.974 171.57zm-6.28-115.148l-82.213-47.95c-7.49-4.373-13.533-.876-13.49 7.79l.42 95.174c.04 8.664 6.155 12.19 13.67 7.85l81.584-47.102c7.506-4.332 7.522-11.388.032-15.762z"/></symbol><symbol id="twitter" viewBox="0 0 612 612"><path d="M612 116.258c-22.525 9.98-46.694 16.75-72.088 19.772 25.93-15.527 45.777-40.155 55.184-69.41-24.322 14.378-51.17 24.82-79.775 30.48-22.905-24.438-55.49-39.66-91.63-39.66-69.332 0-125.55 56.218-125.55 125.514 0 9.828 1.11 19.427 3.25 28.606-104.324-5.24-196.833-55.223-258.75-131.174-10.82 18.51-16.98 40.078-16.98 63.1 0 43.56 22.183 81.994 55.837 104.48-20.575-.688-39.926-6.348-56.867-15.756v1.568c0 60.806 43.29 111.554 100.692 123.104-10.517 2.83-21.607 4.398-33.08 4.398-8.107 0-15.947-.803-23.634-2.333 15.985 49.907 62.336 86.2 117.253 87.194-42.945 33.656-97.097 53.657-155.914 53.657-10.134 0-20.116-.612-29.944-1.72 55.568 35.68 121.537 56.484 192.44 56.484 230.947 0 357.187-191.29 357.187-357.187l-.42-16.253c24.66-17.595 46-39.7 62.79-64.863z"/></symbol><symbol id="youtube" viewBox="0 0 90 90"><path d="M70.94 65.832H66l.023-2.87c0-1.274 1.047-2.317 2.326-2.317h.313c1.282 0 2.332 1.043 2.332 2.318l-.057 2.87zm-18.527-6.148c-1.253 0-2.278.842-2.278 1.873V75.51c0 1.03 1.025 1.87 2.278 1.87 1.258 0 2.284-.84 2.284-1.87V61.557c0-1.032-1.026-1.873-2.284-1.873zM82.5 51.88v26.543C82.5 84.79 76.98 90 70.23 90H19.77C13.02 90 7.5 84.79 7.5 78.423V51.88c0-6.368 5.52-11.58 12.27-11.58h50.46c6.75 0 12.27 5.212 12.27 11.58zM23.137 81.304l-.004-27.96h6.255v-4.142l-16.674-.025v4.073l5.205.016v28.04h5.216zm18.75-23.796h-5.215v14.93c0 2.16.13 3.24-.008 3.62-.424 1.16-2.33 2.39-3.073.126-.124-.396-.013-1.59-.015-3.643l-.02-15.033h-5.187l.016 14.797c.004 2.268-.05 3.96.018 4.73.128 1.356.083 2.938 1.342 3.842 2.346 1.69 6.843-.253 7.968-2.67l-.01 3.084 4.188.005V57.51zM58.57 74.606l-.01-12.427c-.005-4.737-3.548-7.573-8.357-3.74l.02-9.24-5.208.01-.025 31.89 4.284-.064.39-1.986c5.473 5.022 8.914 1.58 8.906-4.443zm16.32-1.647l-3.91.02c0 .155-.007.334-.01.53v2.18c0 1.17-.964 2.12-2.136 2.12h-.766c-1.174 0-2.14-.95-2.14-2.12v-5.738h8.955v-3.37c0-2.463-.063-4.925-.267-6.333-.64-4.455-6.893-5.16-10.05-2.88-.992.71-1.75 1.663-2.19 2.943-.443 1.28-.664 3.03-.664 5.254v7.41c.002 12.318 14.964 10.577 13.18-.018zM54.834 32.73c.27.654.687 1.184 1.254 1.584.56.394 1.276.592 2.134.592.753 0 1.42-.203 2-.622.577-.417 1.064-1.04 1.462-1.87l-.1 2.045h5.814V9.74H62.82v19.24c0 1.042-.858 1.895-1.907 1.895-1.043 0-1.904-.853-1.904-1.895V9.74H54.23v16.674c0 2.124.04 3.54.102 4.258.065.713.23 1.397.498 2.06zM37.217 18.77c0-2.373.198-4.226.59-5.562.397-1.33 1.108-2.4 2.138-3.208 1.027-.81 2.342-1.217 3.94-1.217 1.346 0 2.498.264 3.46.78.967.52 1.713 1.196 2.23 2.03.527.835.885 1.694 1.076 2.573.197.89.293 2.235.293 4.048v6.252c0 2.293-.092 3.98-.27 5.05-.178 1.075-.558 2.07-1.147 3.005-.58.926-1.33 1.617-2.237 2.058-.92.445-1.97.663-3.155.663-1.325 0-2.44-.182-3.36-.564-.924-.38-1.637-.953-2.145-1.714-.514-.76-.875-1.69-1.093-2.77-.22-1.082-.323-2.708-.323-4.875l.003-6.545zm4.553 9.82c0 1.4 1.042 2.543 2.31 2.543 1.27 0 2.31-1.143 2.31-2.543V15.43c0-1.398-1.04-2.54-2.31-2.54-1.268 0-2.31 1.142-2.31 2.54v13.16zm-16.088 6.645h5.484l.006-18.96L37.652.033h-5.998L28.21 12.097 24.714 0H18.78l6.893 16.284.01 18.95z"/></symbol></svg>